<?xml version="1.0" standalone="no"?>
<!DOCTYPE svg PUBLIC "-//W3C//DTD SVG 20010904//EN"
 "http://www.w3.org/TR/2001/REC-SVG-20010904/DTD/svg10.dtd">
<svg version="1.0" xmlns="http://www.w3.org/2000/svg"
 width="260.000000pt" height="260.000000pt" viewBox="0 0 400.000000 400.000000"
 preserveAspectRatio="xMidYMid meet">
<metadata>
Created by potrace 1.11, written by Peter Selinger 2001-2013
</metadata>
<g id="svgg">
<path id="path0" d="M138.800 124.400 L 138.800 132.800 164.300 132.806 C 179.671 132.810,190.038 132.963,190.400 133.192 C 190.928 133.525,191.024 141.943,191.200 203.685 L 191.400 273.800 200.800 273.800 L 210.200 273.800 210.299 203.800 C 210.391 138.550,210.444 133.766,211.075 133.300 C 211.601 132.912,217.446 132.800,237.076 132.800 L 262.400 132.800 262.400 124.400 L 262.400 116.000 200.600 116.000 L 138.800 116.000 138.800 124.400 " stroke="none" fill="#000000" fill-rule="evenodd"></path><path id="path1" d="M138.580 116.109 C 138.472 116.390,138.432 120.396,138.492 125.010 L 138.600 133.400 164.500 133.503 L 190.400 133.606 190.406 203.503 C 190.409 241.946,190.557 273.628,190.734 273.907 C 190.983 274.299,193.277 274.390,200.828 274.307 L 210.600 274.200 210.701 204.440 C 210.774 153.914,210.925 134.531,211.248 134.143 C 211.610 133.706,216.439 133.587,237.147 133.503 L 262.600 133.400 262.600 124.600 L 262.600 115.800 200.688 115.699 C 150.705 115.617,138.738 115.696,138.580 116.109 M262.400 124.400 L 262.400 132.800 237.076 132.800 C 217.446 132.800,211.601 132.912,211.075 133.300 C 210.444 133.766,210.391 138.550,210.299 203.800 L 210.200 273.800 200.800 273.800 L 191.400 273.800 191.200 203.685 C 191.024 141.943,190.928 133.525,190.400 133.192 C 190.038 132.963,179.671 132.810,164.300 132.806 L 138.800 132.800 138.800 124.400 L 138.800 116.000 200.600 116.000 L 262.400 116.000 262.400 124.400 " stroke="none" fill="#575757" fill-rule="evenodd"></path><path id="path2" d="M138.267 115.867 C 137.889 116.244,137.946 132.895,138.326 133.494 C 138.679 134.049,190.400 134.455,190.400 133.903 C 190.400 133.740,178.745 133.560,164.500 133.503 L 138.600 133.400 138.600 124.500 C 138.600 119.605,138.585 115.600,138.567 115.600 C 138.548 115.600,138.413 115.720,138.267 115.867 M262.600 124.538 L 262.600 133.400 237.147 133.503 C 216.439 133.587,211.610 133.706,211.248 134.143 C 210.925 134.531,210.774 153.914,210.701 204.440 L 210.600 274.200 200.828 274.307 C 193.292 274.390,190.974 274.298,190.698 273.907 C 190.428 273.525,190.380 273.548,190.503 274.000 C 190.769 274.976,210.391 275.101,211.100 274.131 C 211.495 273.590,211.600 258.871,211.600 203.724 L 211.600 134.000 237.157 134.000 C 260.093 134.000,262.739 133.935,262.957 133.367 C 263.309 132.449,263.256 116.082,262.900 115.862 C 262.735 115.759,262.600 119.664,262.600 124.538 " stroke="none" fill="#b3b3b3" fill-rule="evenodd"></path><path id="path3" d="M138.262 115.500 C 138.160 115.665,166.184 115.800,200.538 115.800 L 263.000 115.800 263.113 124.000 C 263.176 128.510,263.127 132.605,263.006 133.100 L 262.785 134.000 237.092 134.097 L 211.400 134.194 236.955 134.300 C 255.503 134.377,262.660 134.282,263.055 133.954 C 263.929 133.229,263.846 115.780,262.967 115.443 C 262.043 115.088,138.481 115.145,138.262 115.500 M138.103 133.600 C 138.246 134.124,141.539 134.213,164.133 134.303 L 190.000 134.406 190.000 204.170 C 190.000 242.541,190.109 274.219,190.243 274.567 C 190.455 275.121,191.729 275.200,200.410 275.200 C 210.777 275.200,211.600 275.118,211.600 274.081 C 211.600 273.529,211.535 273.536,211.100 274.131 C 210.648 274.749,209.647 274.804,200.600 274.707 L 190.600 274.600 190.400 204.400 L 190.200 134.200 164.422 134.097 C 144.433 134.017,138.564 133.882,138.291 133.497 C 138.032 133.132,137.982 133.159,138.103 133.600 " stroke="none" fill="#dbdbdb" fill-rule="evenodd"></path><path id="path4" d="M0.000 200.000 L 0.000 400.000 200.000 400.000 L 400.000 400.000 400.000 200.000 L 400.000 0.000 200.000 0.000 L 0.000 0.000 0.000 200.000 M262.967 115.443 C 263.790 115.758,263.933 133.107,263.120 133.920 C 262.757 134.283,256.436 134.400,237.120 134.400 L 211.600 134.400 211.600 204.557 C 211.600 268.162,211.541 274.737,210.967 274.957 C 209.366 275.572,190.492 275.216,190.243 274.567 C 190.109 274.219,190.000 242.541,190.000 204.170 L 190.000 134.406 164.100 134.303 L 138.200 134.200 138.092 125.209 C 138.033 120.264,138.072 115.989,138.180 115.709 C 138.385 115.174,261.581 114.911,262.967 115.443 " stroke="none" fill="#ffffff" fill-rule="evenodd"></path>
</g>
</svg>
